<svg width="800" height="800" viewBox="0 -50 800 950" fill="none" xmlns="http://www.w3.org/2000/svg">
<g clip-path="url(#clip0_4_7)">
<path d="M766.719 392.422C759.609 392.422 752.422 390.156 746.406 385.469L421.094 134.141C409.141 124.922 392.422 124.922 380.469 134.141L55.2344 385.469C40.7031 396.719 19.7656 393.984 8.59376 379.453C-2.65624 364.922 8.82149e-06 343.984 14.6094 332.813L339.844 81.4844C375.781 53.75 425.938 53.75 461.797 81.4844L787.109 332.813C801.641 344.063 804.297 364.922 793.125 379.453C786.484 387.969 776.641 392.422 766.719 392.422Z" fill="#bdbdbc"/>
<path d="M633.125 766.641H168.516C113.203 766.641 68.2031 721.641 68.2031 666.328V417.344C68.2031 398.984 83.125 384.062 101.484 384.062C119.844 384.062 134.766 398.984 134.766 417.344V666.328C134.766 684.922 149.922 700.078 168.516 700.078H633.203C651.797 700.078 666.953 684.922 666.953 666.328V417.344C666.953 398.984 681.875 384.062 700.234 384.062C718.594 384.062 733.516 398.984 733.516 417.344V666.328C733.437 721.641 688.437 766.641 633.125 766.641Z" fill="#80DF77"/>
</g>
<defs>
<clipPath id="clip0_4_7">
<rect width="800" height="800" fill="white"/>
</clipPath>
</defs>
</svg>
